<svg width="129" height="36" viewBox="0 0 129 36" fill="none" xmlns="http://www.w3.org/2000/svg">
<g clip-path="url(#clip0_606_947)">
<path fill-rule="evenodd" clip-rule="evenodd" d="M45.1324 6.35992C45.1503 6.43392 45.1907 6.53592 45.2075 6.61092C45.6663 8.46692 45.5294 10.7489 44.7453 13.4539C44.7453 13.4539 44.7397 13.5019 44.7095 13.5229C44.0588 15.8249 42.9921 18.4269 41.4788 21.3479C37.4451 29.1379 33.1286 33.7239 28.553 35.1299C28.0494 35.2729 27.5457 35.4159 27.0252 35.4839C23.7284 35.9729 20.3139 34.8849 16.7591 32.1949C14.989 30.8879 13.1942 29.1619 11.3893 27.0929L10.5458 26.1259C10.2653 25.8039 10.0365 25.4859 9.75494 25.1639C7.98259 22.8539 6.6982 20.7179 5.96346 18.7109C4.94492 15.9909 4.94044 13.5479 5.89055 11.4229C6.69147 9.62492 8.22377 7.99992 10.428 6.59292C12.9833 4.97592 16.5 3.63092 20.8938 2.57292C22.0477 2.28075 23.2132 2.02658 24.388 1.81092C29.8296 0.787922 34.2302 0.510922 37.5371 0.976922C41.7952 1.58992 44.281 3.38692 45.1324 6.35892V6.35992Z" fill="#3F8EFC"/>
<path fill-rule="evenodd" clip-rule="evenodd" d="M28.5932 35.1245C28.0896 35.2685 27.5859 35.4115 27.0643 35.4795C23.763 35.9695 20.3451 34.8795 16.7847 32.1865C15.0123 30.8775 13.2153 29.1495 11.4093 27.0785L10.5635 26.1105C10.2831 25.7885 10.0542 25.4705 9.77267 25.1485C7.99696 22.8355 6.71145 20.6965 5.97559 18.6885C12.3516 20.8905 21.8033 25.5655 28.5943 35.1245H28.5932Z" fill="white" fill-opacity="0.33"/>
<path fill-rule="evenodd" clip-rule="evenodd" d="M27.0806 35.5064C23.7793 35.9954 20.3614 34.9064 16.8021 32.2134C15.0297 30.9044 13.2327 29.1774 11.4267 27.1064C5.91224 20.7864 4.11297 15.5614 5.95151 11.3984C14.4767 15.5124 27.5573 23.7914 27.0806 35.5064V35.5064Z" fill="#FFFDFD" fill-opacity="0.33"/>
<path fill-rule="evenodd" clip-rule="evenodd" d="M45.139 6.37695C45.1559 6.45195 45.1951 6.55395 45.2131 6.62895C45.6707 8.48395 45.535 10.765 44.7509 13.468C44.7509 13.468 44.7453 13.516 44.715 13.538C44.0644 15.838 42.9988 18.438 41.4867 21.358C37.0154 30.028 32.2043 34.705 27.0387 35.488C23.7441 35.975 20.3307 34.888 16.7781 32.2C15.0091 30.893 13.2143 29.168 11.4117 27.1C10.8262 26.429 10.3169 25.79 9.80762 25.151C16.5683 24.315 34.8617 20.744 45.1379 6.37695H45.139Z" fill="white" fill-opacity="0.12"/>
<path fill-rule="evenodd" clip-rule="evenodd" d="M37.567 0.97384C37.7499 1.01784 38.304 1.09984 38.4341 1.13784C21.9961 5.77884 13.6011 19.1418 10.569 26.0788C10.2886 25.7568 10.0597 25.4398 9.77817 25.1188C5.56155 19.6748 4.27491 15.0978 5.91714 11.3858C6.71694 9.58884 8.24811 7.96584 10.4512 6.55884C13.0043 4.94384 16.5187 3.59884 20.9114 2.54084C22.0642 2.2494 23.2286 1.99589 24.4023 1.78084C29.8943 0.76384 34.2624 0.50884 37.567 0.97384Z" fill="white" fill-opacity="0.12"/>
<path fill-rule="evenodd" clip-rule="evenodd" d="M45.24 6.66602C46.0869 10.074 44.8541 14.976 41.5428 21.37C34.229 35.527 25.9775 39.138 16.7871 32.202C22.877 30.1 39.7525 22.917 45.24 6.66602Z" fill="#203FD8" fill-opacity="0.25"/>
<path d="M10.4824 6.5933C8.25349 7.9743 6.75148 9.5783 5.92027 11.3983C4.27692 15.1123 5.5658 19.6943 9.78578 25.1413C10.0135 25.4583 10.2951 25.7813 10.5766 26.1033L11.4202 27.0703C13.2486 29.1663 15.0209 30.8653 16.7899 32.1733C20.3458 34.8633 23.8143 35.9573 27.0583 35.4633C32.2262 34.6803 37.0698 29.9783 41.5142 21.3243C43.0274 18.4023 44.0942 15.8013 44.7448 13.4983C30.1364 6.5083 11.5346 6.5803 10.4824 6.5933Z" fill="url(#paint0_linear_606_947)"/>
<path fill-rule="evenodd" clip-rule="evenodd" d="M44.7519 13.4496C44.7519 13.4496 44.7463 13.4976 44.716 13.5196C44.0654 15.8216 42.9986 18.4236 41.4854 21.3446C37.0119 30.0196 32.1974 34.7006 27.0295 35.4836C23.7316 35.9716 20.317 34.8836 16.7611 32.1936C14.991 30.8856 13.1962 29.1596 11.3913 27.0906L10.5467 26.1236C10.2662 25.8016 10.0374 25.4836 9.75697 25.1616C5.53699 19.7146 4.24923 15.1336 5.89146 11.4186C6.69238 9.61959 8.22468 7.99459 10.43 6.58659C12.9842 4.97059 16.502 3.62459 20.897 2.56659C22.0512 2.2744 23.2171 2.02022 24.3923 1.80459C25.9672 1.50459 27.5063 1.27359 28.9028 1.10059C27.5063 1.27359 26.0199 1.51059 24.445 1.81059C23.2702 2.02592 22.1047 2.27976 20.9508 2.57159C27.7171 3.78759 37.2553 6.68359 44.7519 13.4496V13.4496Z" fill="url(#paint1_linear_606_947)"/>
<path d="M58.9545 23.1648C58.0341 23.1648 57.2443 22.9754 56.5852 22.5966C55.9299 22.2178 55.4261 21.6913 55.0739 21.017C54.7216 20.339 54.5455 19.5549 54.5455 18.6648C54.5455 17.7708 54.7216 16.9867 55.0739 16.3125C55.4299 15.6345 55.9356 15.1061 56.5909 14.7273C57.25 14.3485 58.036 14.1591 58.9489 14.1591C59.7557 14.1591 60.4583 14.3049 61.0568 14.5966C61.6591 14.8883 62.1288 15.3011 62.4659 15.8352C62.8068 16.3655 62.9867 16.9886 63.0057 17.7045H60.4091C60.3561 17.2576 60.2045 16.9072 59.9545 16.6534C59.7083 16.3996 59.3864 16.2727 58.9886 16.2727C58.6667 16.2727 58.3845 16.3636 58.142 16.5455C57.8996 16.7235 57.7102 16.9886 57.5739 17.3409C57.4413 17.6894 57.375 18.1212 57.375 18.6364C57.375 19.1515 57.4413 19.5871 57.5739 19.9432C57.7102 20.2955 57.8996 20.5625 58.142 20.7443C58.3845 20.9223 58.6667 21.0114 58.9886 21.0114C59.2462 21.0114 59.4735 20.9564 59.6705 20.8466C59.8712 20.7367 60.036 20.5758 60.1648 20.3636C60.2936 20.1477 60.375 19.8864 60.4091 19.5795H63.0057C62.9792 20.2992 62.7992 20.928 62.4659 21.4659C62.1364 22.0038 61.6723 22.4223 61.0739 22.7216C60.4792 23.017 59.7727 23.1648 58.9545 23.1648ZM67.206 18.0227V23H64.4276V11.3636H67.1151V15.875H67.2116C67.4086 15.3371 67.7306 14.9167 68.1776 14.6136C68.6283 14.3106 69.1795 14.1591 69.831 14.1591C70.4446 14.1591 70.9787 14.2955 71.4332 14.5682C71.8878 14.8371 72.2401 15.2178 72.4901 15.7102C72.7438 16.2027 72.8688 16.7784 72.8651 17.4375V23H70.0866V17.983C70.0904 17.4981 69.9692 17.1193 69.723 16.8466C69.4768 16.5739 69.1302 16.4375 68.6832 16.4375C68.3916 16.4375 68.134 16.5019 67.9105 16.6307C67.6908 16.7557 67.5185 16.9356 67.3935 17.1705C67.2723 17.4053 67.2098 17.6894 67.206 18.0227ZM77.0597 23.1477C76.5028 23.1477 76.0085 23.0549 75.5767 22.8693C75.1487 22.6799 74.8097 22.3958 74.5597 22.017C74.3134 21.6345 74.1903 21.1553 74.1903 20.5795C74.1903 20.0947 74.2756 19.6856 74.446 19.3523C74.6165 19.0189 74.8513 18.7481 75.1506 18.5398C75.4498 18.3314 75.7945 18.1742 76.1847 18.0682C76.5748 17.9583 76.9915 17.8845 77.4347 17.8466C77.9309 17.8011 78.3305 17.7538 78.6335 17.7045C78.9366 17.6515 79.1563 17.5777 79.2926 17.483C79.4328 17.3845 79.5028 17.2462 79.5028 17.0682V17.0398C79.5028 16.7481 79.4025 16.5227 79.2017 16.3636C79.0009 16.2045 78.7301 16.125 78.3892 16.125C78.0218 16.125 77.7263 16.2045 77.5028 16.3636C77.2794 16.5227 77.1373 16.7424 77.0767 17.0227L74.5142 16.9318C74.59 16.4015 74.785 15.928 75.0994 15.5114C75.4176 15.0909 75.8532 14.7614 76.4062 14.5227C76.9631 14.2803 77.6316 14.1591 78.4119 14.1591C78.9688 14.1591 79.482 14.2254 79.9517 14.358C80.4214 14.4867 80.8305 14.6761 81.179 14.9261C81.5275 15.1723 81.7964 15.4754 81.9858 15.8352C82.179 16.1951 82.2756 16.6061 82.2756 17.0682V23H79.6619V21.7841H79.5938C79.4384 22.0795 79.2396 22.3295 78.9972 22.5341C78.7585 22.7386 78.4763 22.892 78.1506 22.9943C77.8286 23.0966 77.465 23.1477 77.0597 23.1477ZM77.9176 21.3295C78.2169 21.3295 78.4858 21.2689 78.7244 21.1477C78.9669 21.0265 79.16 20.8598 79.304 20.6477C79.4479 20.4318 79.5199 20.1818 79.5199 19.8977V19.0682C79.4403 19.1098 79.3438 19.1477 79.2301 19.1818C79.1203 19.2159 78.9991 19.2481 78.8665 19.2784C78.7339 19.3087 78.5975 19.3352 78.4574 19.358C78.3172 19.3807 78.1828 19.4015 78.054 19.4205C77.7926 19.4621 77.5691 19.5265 77.3835 19.6136C77.2017 19.7008 77.0616 19.8144 76.9631 19.9545C76.8684 20.0909 76.821 20.2538 76.821 20.4432C76.821 20.7311 76.9233 20.9508 77.1278 21.1023C77.3362 21.2538 77.5994 21.3295 77.9176 21.3295ZM83.9744 23V14.2727H86.6733V15.8636H86.7642C86.9233 15.2879 87.1828 14.8598 87.5426 14.5795C87.9025 14.2955 88.321 14.1534 88.7983 14.1534C88.9271 14.1534 89.0597 14.1629 89.196 14.1818C89.3324 14.197 89.4593 14.2216 89.5767 14.2557V16.6705C89.4441 16.625 89.2699 16.589 89.054 16.5625C88.8419 16.536 88.6525 16.5227 88.4858 16.5227C88.1563 16.5227 87.8589 16.5966 87.5938 16.7443C87.3324 16.8883 87.1259 17.0909 86.9744 17.3523C86.8267 17.6098 86.7528 17.9129 86.7528 18.2614V23H83.9744ZM94.3239 26.4545C93.4943 26.4545 92.7841 26.339 92.1932 26.108C91.6023 25.8769 91.1383 25.5606 90.8011 25.1591C90.464 24.7576 90.2614 24.303 90.1932 23.7955L92.8239 23.6477C92.8731 23.8258 92.964 23.9811 93.0966 24.1136C93.233 24.2462 93.4091 24.3485 93.625 24.4205C93.8447 24.4924 94.1023 24.5284 94.3977 24.5284C94.8636 24.5284 95.2481 24.4148 95.5511 24.1875C95.858 23.964 96.0114 23.572 96.0114 23.0114V21.4773H95.9148C95.8049 21.7462 95.6383 21.9867 95.4148 22.1989C95.1913 22.411 94.9129 22.5777 94.5795 22.6989C94.25 22.8201 93.8712 22.8807 93.4432 22.8807C92.8068 22.8807 92.2235 22.733 91.6932 22.4375C91.1667 22.1383 90.7443 21.6761 90.4261 21.0511C90.1117 20.4223 89.9545 19.6136 89.9545 18.625C89.9545 17.6061 90.1174 16.767 90.4432 16.108C90.7689 15.4451 91.1951 14.9545 91.7216 14.6364C92.2519 14.3182 92.822 14.1591 93.4318 14.1591C93.8902 14.1591 94.2822 14.2386 94.608 14.3977C94.9375 14.553 95.2083 14.7538 95.4205 15C95.6326 15.2462 95.7936 15.5019 95.9034 15.767H95.983V14.2727H98.75V23.0341C98.75 23.7727 98.5644 24.3958 98.1932 24.9034C97.822 25.411 97.303 25.7955 96.6364 26.0568C95.9697 26.322 95.1989 26.4545 94.3239 26.4545ZM94.4091 20.858C94.7462 20.858 95.0341 20.7689 95.2727 20.5909C95.5114 20.4129 95.6951 20.1572 95.8239 19.8239C95.9527 19.4905 96.017 19.0909 96.017 18.625C96.017 18.1515 95.9527 17.7443 95.8239 17.4034C95.6989 17.0587 95.5152 16.7936 95.2727 16.608C95.0341 16.4223 94.7462 16.3295 94.4091 16.3295C94.0644 16.3295 93.7727 16.4242 93.5341 16.6136C93.2955 16.803 93.1136 17.0701 92.9886 17.4148C92.8674 17.7557 92.8068 18.1591 92.8068 18.625C92.8068 19.0909 92.8693 19.4905 92.9943 19.8239C93.1193 20.1572 93.2992 20.4129 93.5341 20.5909C93.7727 20.7689 94.0644 20.858 94.4091 20.858ZM104.601 23.1648C103.688 23.1648 102.9 22.9848 102.237 22.625C101.578 22.2614 101.071 21.7443 100.714 21.0739C100.362 20.3996 100.186 19.5985 100.186 18.6705C100.186 17.7689 100.364 16.9811 100.72 16.3068C101.076 15.6288 101.578 15.1023 102.226 14.7273C102.874 14.3485 103.637 14.1591 104.516 14.1591C105.137 14.1591 105.705 14.2557 106.22 14.4489C106.735 14.642 107.18 14.928 107.555 15.3068C107.93 15.6856 108.222 16.1534 108.43 16.7102C108.639 17.2633 108.743 17.8977 108.743 18.6136V19.3068H101.158V17.6932H106.158C106.154 17.3977 106.084 17.1345 105.947 16.9034C105.811 16.6723 105.624 16.4924 105.385 16.3636C105.15 16.2311 104.879 16.1648 104.572 16.1648C104.262 16.1648 103.983 16.2348 103.737 16.375C103.491 16.5114 103.296 16.6989 103.152 16.9375C103.008 17.1723 102.932 17.4394 102.925 17.7386V19.3807C102.925 19.7367 102.995 20.0492 103.135 20.3182C103.275 20.5833 103.474 20.7898 103.732 20.9375C103.989 21.0852 104.296 21.1591 104.652 21.1591C104.898 21.1591 105.122 21.125 105.322 21.0568C105.523 20.9886 105.696 20.8883 105.839 20.7557C105.983 20.6231 106.091 20.4602 106.163 20.267L108.714 20.3409C108.608 20.9129 108.375 21.411 108.016 21.8352C107.66 22.2557 107.192 22.5833 106.612 22.8182C106.033 23.0492 105.362 23.1648 104.601 23.1648ZM114.236 23.1648C113.319 23.1648 112.531 22.9773 111.872 22.6023C111.217 22.2235 110.711 21.697 110.355 21.0227C110.003 20.3447 109.827 19.5587 109.827 18.6648C109.827 17.767 110.003 16.9811 110.355 16.3068C110.711 15.6288 111.217 15.1023 111.872 14.7273C112.531 14.3485 113.319 14.1591 114.236 14.1591C115.152 14.1591 115.938 14.3485 116.594 14.7273C117.253 15.1023 117.759 15.6288 118.111 16.3068C118.467 16.9811 118.645 17.767 118.645 18.6648C118.645 19.5587 118.467 20.3447 118.111 21.0227C117.759 21.697 117.253 22.2235 116.594 22.6023C115.938 22.9773 115.152 23.1648 114.236 23.1648ZM114.253 21.0682C114.586 21.0682 114.868 20.9659 115.099 20.7614C115.33 20.5568 115.507 20.2727 115.628 19.9091C115.753 19.5455 115.815 19.125 115.815 18.6477C115.815 18.1629 115.753 17.7386 115.628 17.375C115.507 17.0114 115.33 16.7273 115.099 16.5227C114.868 16.3182 114.586 16.2159 114.253 16.2159C113.908 16.2159 113.616 16.3182 113.378 16.5227C113.143 16.7273 112.963 17.0114 112.838 17.375C112.717 17.7386 112.656 18.1629 112.656 18.6477C112.656 19.125 112.717 19.5455 112.838 19.9091C112.963 20.2727 113.143 20.5568 113.378 20.7614C113.616 20.9659 113.908 21.0682 114.253 21.0682ZM122.847 18.0227V23H120.068V14.2727H122.71V15.875H122.807C123 15.3409 123.33 14.9223 123.795 14.6193C124.261 14.3125 124.816 14.1591 125.46 14.1591C126.074 14.1591 126.606 14.2973 127.057 14.5739C127.511 14.8466 127.864 15.2292 128.114 15.7216C128.367 16.2102 128.492 16.7822 128.489 17.4375V23H125.71V17.983C125.714 17.4981 125.591 17.1193 125.341 16.8466C125.095 16.5739 124.752 16.4375 124.312 16.4375C124.021 16.4375 123.763 16.5019 123.54 16.6307C123.32 16.7557 123.15 16.9356 123.028 17.1705C122.911 17.4053 122.85 17.6894 122.847 18.0227Z" fill="#242424"/>
</g>
<defs>
<linearGradient id="paint0_linear_606_947" x1="14.0091" y1="30.8633" x2="28.6836" y2="4.54124" gradientUnits="userSpaceOnUse">
<stop offset="0.21" stop-color="#3F64FC" stop-opacity="0"/>
<stop offset="0.929" stop-color="#3F64FC" stop-opacity="0.91"/>
<stop offset="1" stop-color="#3F64FC"/>
</linearGradient>
<linearGradient id="paint1_linear_606_947" x1="16.4235" y1="33.0396" x2="27.9832" y2="0.766747" gradientUnits="userSpaceOnUse">
<stop offset="0.58" stop-color="#0042FF" stop-opacity="0"/>
<stop offset="0.828" stop-color="#0044FF" stop-opacity="0.59"/>
<stop offset="0.917" stop-color="#004BFF" stop-opacity="0.802"/>
<stop offset="0.98" stop-color="#0056FF" stop-opacity="0.953"/>
<stop offset="1" stop-color="#005CFF"/>
</linearGradient>
<clipPath id="clip0_606_947">
<rect width="129" height="36" fill="white"/>
</clipPath>
</defs>
</svg>
