<svg width="511" height="512" viewBox="0 0 511 512" fill="none" xmlns="http://www.w3.org/2000/svg">
<path d="M498.499 12.5226C493.15 7.24719 486.514 3.46187 479.251 1.54214C471.987 -0.377583 464.348 -0.364998 457.091 1.57865L377.837 27.5627L116.717 288.683C87.5288 272.953 56.0127 261.991 23.3628 256.213L17.2614 298.432C58.7992 306.22 97.9245 323.663 131.48 349.355L52.3334 428.501L30.4881 406.656L0.322754 436.821L74.9894 511.488L105.155 481.323L82.4988 458.667L161.645 379.52C187.345 413.068 204.783 452.197 212.547 493.739L254.787 487.637C249.032 454.981 238.069 423.462 222.317 394.283L483.437 133.163L509.997 51.8826C511.553 44.8845 511.314 37.6069 509.304 30.7257C507.293 23.8445 503.577 17.5829 498.499 12.5226V12.5226Z" fill="white"/>
</svg>
