<svg width="643" height="643" viewBox="0 0 643 643" fill="none" xmlns="http://www.w3.org/2000/svg">
<path d="M138.5 184L1 321L138.5 458.5L184.5 412.5L93 321L184.5 229.5L138.5 184Z" fill="white"/>
<path d="M138.5 184L1 321L138.5 458.5L184.5 412.5L93 321L184.5 229.5L138.5 184Z" fill="url(#paint0_linear_17_2)" fill-opacity="0.2"/>
<path d="M138.5 184L1 321L138.5 458.5L184.5 412.5L93 321L184.5 229.5L138.5 184Z" stroke="#F7F8FC"/>
<path d="M504 458.5L641.5 321.5L504 184L458 230L549.5 321.5L458 413L504 458.5Z" fill="#A8B3CF"/>
<path d="M504 458.5L641.5 321.5L504 184L458 230L549.5 321.5L458 413L504 458.5Z" fill="black" fill-opacity="0.2"/>
<path d="M504 458.5L641.5 321.5L504 184L458 230L549.5 321.5L458 413L504 458.5Z" fill="url(#paint1_linear_17_2)" fill-opacity="0.2"/>
<path d="M504 458.5L641.5 321.5L504 184L458 230L549.5 321.5L458 413L504 458.5Z" stroke="#A8B3CF"/>
<path d="M458.5 504L321.5 641.5L184 504L230 458L321.5 549.5L413 458L458.5 504Z" fill="white"/>
<path d="M458.5 504L321.5 641.5L184 504L230 458L321.5 549.5L413 458L458.5 504Z" fill="url(#paint2_linear_17_2)" fill-opacity="0.2"/>
<path d="M458.5 504L321.5 641.5L184 504L230 458L321.5 549.5L413 458L458.5 504Z" stroke="#F8F4F4"/>
<path d="M458.5 138.5L321.5 1L184 138.5L230 184.5L321.5 93L413 184.5L458.5 138.5Z" fill="white" stroke="white"/>
<defs>
<linearGradient id="paint0_linear_17_2" x1="1140" y1="212.5" x2="92.75" y2="458.5" gradientUnits="userSpaceOnUse">
<stop offset="0.43834"/>
<stop offset="1" stop-opacity="0"/>
</linearGradient>
<linearGradient id="paint1_linear_17_2" x1="306" y1="-213.5" x2="549.75" y2="458.5" gradientUnits="userSpaceOnUse">
<stop/>
<stop offset="0.0001" stop-opacity="0"/>
</linearGradient>
<linearGradient id="paint2_linear_17_2" x1="867.5" y1="233.5" x2="321.25" y2="641.5" gradientUnits="userSpaceOnUse">
<stop/>
<stop offset="1" stop-opacity="0"/>
</linearGradient>
</defs>
</svg>
