<svg width="4" height="4" viewBox="0 0 4 4" fill="none" xmlns="http://www.w3.org/2000/svg">
<path d="M1.99935 0.666992C2.17616 0.666992 2.34573 0.73723 2.47075 0.862254C2.59578 0.987279 2.66602 1.15685 2.66602 1.33366C2.66602 1.51047 2.59578 1.68004 2.47075 1.80506C2.34573 1.93009 2.17616 2.00033 1.99935 2.00033C1.82254 2.00033 1.65297 1.93009 1.52794 1.80506C1.40292 1.68004 1.33268 1.51047 1.33268 1.33366C1.33268 1.15685 1.40292 0.987279 1.52794 0.862254C1.65297 0.73723 1.82254 0.666992 1.99935 0.666992V0.666992ZM1.99935 2.33366C2.73602 2.33366 3.33268 2.63199 3.33268 3.00033V3.33366H0.666016V3.00033C0.666016 2.63199 1.26268 2.33366 1.99935 2.33366Z" fill="#A8B3CF"/>
</svg>
