<svg width="508" height="512" viewBox="0 0 508 512" fill="none" xmlns="http://www.w3.org/2000/svg">
<path d="M446.001 256C445.995 244.23 444.924 232.484 442.801 220.907L507.718 183.467L443.718 72.5333L378.779 110.059C360.85 94.7184 340.246 82.8146 318.001 74.944V0H190.001V74.944C167.755 82.8146 147.152 94.7184 129.222 110.059L64.2832 72.5333L0.283203 183.467L65.2005 220.907C60.9362 244.108 60.9362 267.892 65.2005 291.093L0.283203 328.533L64.2832 439.467L129.222 401.963C147.153 417.295 167.757 429.192 190.001 437.056V512H318.001V437.056C340.246 429.185 360.85 417.282 378.779 401.941L443.718 439.467L507.718 328.533L442.801 291.093C444.924 279.516 445.995 267.77 446.001 256V256ZM318.001 256C318.001 268.658 314.247 281.032 307.215 291.557C300.182 302.081 290.187 310.284 278.492 315.128C266.798 319.972 253.93 321.24 241.515 318.77C229.1 316.301 217.696 310.205 208.746 301.255C199.795 292.304 193.7 280.901 191.23 268.486C188.761 256.071 190.028 243.203 194.872 231.508C199.716 219.814 207.919 209.818 218.444 202.786C228.969 195.754 241.343 192 254.001 192C270.974 192 287.253 198.743 299.255 210.745C311.258 222.747 318.001 239.026 318.001 256Z" fill="#A8B3CF"/>
</svg>
